<?xml version="1.0" encoding="UTF-8"?>
<svg width="20px" height="20px" viewBox="0 0 20 20" version="1.1" xmlns="http://www.w3.org/2000/svg" xmlns:xlink="http://www.w3.org/1999/xlink">
    <title>icon-bottom</title>
    <g id="icon-bottom" stroke="none" stroke-width="1" fill="none" fill-rule="evenodd">
        <path d="M9.64644661,8.64644661 C9.82001296,8.47288026 10.0894374,8.45359511 10.2843055,8.58859116 L10.3535534,8.64644661 L14.3535534,12.6464466 C14.5488155,12.8417088 14.5488155,13.1582912 14.3535534,13.3535534 C14.179987,13.5271197 13.9105626,13.5464049 13.7156945,13.4114088 L13.6464466,13.3535534 L10,9.707 L6.35355339,13.3535534 C6.17998704,13.5271197 5.91056264,13.5464049 5.7156945,13.4114088 L5.64644661,13.3535534 C5.47288026,13.179987 5.45359511,12.9105626 5.58859116,12.7156945 L5.64644661,12.6464466 L9.64644661,8.64644661 Z" id="路径-13" fill="#979797" fill-rule="nonzero" transform="translate(10.000000, 11.000000) scale(1, -1) translate(-10.000000, -11.000000) "></path>
        <path d="M12,14.5 C12.2761424,14.5 12.5,14.7238576 12.5,15 C12.5,15.2454599 12.3231248,15.4496084 12.0898756,15.4919443 L12,15.5 L8,15.5 C7.72385763,15.5 7.5,15.2761424 7.5,15 C7.5,14.7545401 7.67687516,14.5503916 7.91012437,14.5080557 L8,14.5 L12,14.5 Z" id="路径-14备份" fill="#979797" fill-rule="nonzero"></path>
        <path d="M10,4.5 C10.2454599,4.5 10.4496084,4.67687516 10.4919443,4.91012437 L10.5,5 L10.5,13 C10.5,13.2761424 10.2761424,13.5 10,13.5 C9.75454011,13.5 9.55039163,13.3231248 9.50805567,13.0898756 L9.5,13 L9.5,5 C9.5,4.72385763 9.72385763,4.5 10,4.5 Z" id="路径-5" fill="#979797" fill-rule="nonzero"></path>
    </g>
</svg>