<?xml version="1.0" encoding="UTF-8"?>
<svg width="20px" height="20px" viewBox="0 0 20 20" version="1.1" xmlns="http://www.w3.org/2000/svg" xmlns:xlink="http://www.w3.org/1999/xlink">
    <title>icon-plus</title>
    <g id="icon-plus" stroke="none" stroke-width="1"  fill-rule="evenodd">
        <path d="M15,9.5 C15.2761424,9.5 15.5,9.72385763 15.5,10 C15.5,10.2454599 15.3231248,10.4496084 15.0898756,10.4919443 L15,10.5 L5,10.5 C4.72385763,10.5 4.5,10.2761424 4.5,10 C4.5,9.75454011 4.67687516,9.55039163 4.91012437,9.50805567 L5,9.5 L15,9.5 Z" id="路径-5"  fill-rule="nonzero"></path>
        <path d="M10,4.5 C10.2454599,4.5 10.4496084,4.67687516 10.4919443,4.91012437 L10.5,5 L10.5,15 C10.5,15.2761424 10.2761424,15.5 10,15.5 C9.75454011,15.5 9.55039163,15.3231248 9.50805567,15.0898756 L9.5,15 L9.5,5 C9.5,4.72385763 9.72385763,4.5 10,4.5 Z" id="路径-5"  fill-rule="nonzero"></path>
    </g>
</svg>