<?xml version="1.0" encoding="UTF-8"?>
<svg width="20px" height="20px" viewBox="0 0 20 20" version="1.1" xmlns="http://www.w3.org/2000/svg" xmlns:xlink="http://www.w3.org/1999/xlink">
    <title>icon-top</title>
    <g id="icon-top" stroke="none" stroke-width="1"  fill-rule="evenodd">
        <path d="M9.64644661,6.64644661 C9.82001296,6.47288026 10.0894374,6.45359511 10.2843055,6.58859116 L10.3535534,6.64644661 L14.3535534,10.6464466 C14.5488155,10.8417088 14.5488155,11.1582912 14.3535534,11.3535534 C14.179987,11.5271197 13.9105626,11.5464049 13.7156945,11.4114088 L13.6464466,11.3535534 L10,7.707 L6.35355339,11.3535534 C6.17998704,11.5271197 5.91056264,11.5464049 5.7156945,11.4114088 L5.64644661,11.3535534 C5.47288026,11.179987 5.45359511,10.9105626 5.58859116,10.7156945 L5.64644661,10.6464466 L9.64644661,6.64644661 Z" id="路径-13"  fill-rule="nonzero"></path>
        <path d="M12,4.5 C12.2761424,4.5 12.5,4.72385763 12.5,5 C12.5,5.24545989 12.3231248,5.44960837 12.0898756,5.49194433 L12,5.5 L8,5.5 C7.72385763,5.5 7.5,5.27614237 7.5,5 C7.5,4.75454011 7.67687516,4.55039163 7.91012437,4.50805567 L8,4.5 L12,4.5 Z" id="路径-14"  fill-rule="nonzero"></path>
        <path d="M10,6.5 C10.2454599,6.5 10.4496084,6.67687516 10.4919443,6.91012437 L10.5,7 L10.5,15 C10.5,15.2761424 10.2761424,15.5 10,15.5 C9.75454011,15.5 9.55039163,15.3231248 9.50805567,15.0898756 L9.5,15 L9.5,7 C9.5,6.72385763 9.72385763,6.5 10,6.5 Z" id="路径-5"  fill-rule="nonzero"></path>
    </g>
</svg>