<?xml version="1.0" encoding="UTF-8"?>
<svg width="20px" height="20px" viewBox="0 0 20 20" version="1.1" xmlns="http://www.w3.org/2000/svg" xmlns:xlink="http://www.w3.org/1999/xlink">
    <title>icon-configure</title>
    <g id="icon-configure" stroke="none" stroke-width="1"  fill-rule="evenodd">
        <path d="M11,9.5 C11.2761424,9.5 11.5,9.72385763 11.5,10 C11.5,10.2454599 11.3231248,10.4496084 11.0898756,10.4919443 L11,10.5 L5,10.5 C4.72385763,10.5 4.5,10.2761424 4.5,10 C4.5,9.75454011 4.67687516,9.55039163 4.91012437,9.50805567 L5,9.5 L11,9.5 Z" id="路径-5"  fill-rule="nonzero"></path>
        <path d="M6,4.5 C5.17157288,4.5 4.5,5.17157288 4.5,6 C4.5,6.82842712 5.17157288,7.5 6,7.5 C6.82842712,7.5 7.5,6.82842712 7.5,6 C7.5,5.17157288 6.82842712,4.5 6,4.5 Z M6,5.5 C6.27614237,5.5 6.5,5.72385763 6.5,6 C6.5,6.27614237 6.27614237,6.5 6,6.5 C5.72385763,6.5 5.5,6.27614237 5.5,6 C5.5,5.72385763 5.72385763,5.5 6,5.5 Z" id="椭圆形"  fill-rule="nonzero"></path>
        <path d="M14,8.5 C13.1715729,8.5 12.5,9.17157288 12.5,10 C12.5,10.8284271 13.1715729,11.5 14,11.5 C14.8284271,11.5 15.5,10.8284271 15.5,10 C15.5,9.17157288 14.8284271,8.5 14,8.5 Z M14,9.5 C14.2761424,9.5 14.5,9.72385763 14.5,10 C14.5,10.2761424 14.2761424,10.5 14,10.5 C13.7238576,10.5 13.5,10.2761424 13.5,10 C13.5,9.72385763 13.7238576,9.5 14,9.5 Z" id="椭圆形备份"  fill-rule="nonzero"></path>
        <path d="M6,12.5 C5.17157288,12.5 4.5,13.1715729 4.5,14 C4.5,14.8284271 5.17157288,15.5 6,15.5 C6.82842712,15.5 7.5,14.8284271 7.5,14 C7.5,13.1715729 6.82842712,12.5 6,12.5 Z M6,13.5 C6.27614237,13.5 6.5,13.7238576 6.5,14 C6.5,14.2761424 6.27614237,14.5 6,14.5 C5.72385763,14.5 5.5,14.2761424 5.5,14 C5.5,13.7238576 5.72385763,13.5 6,13.5 Z" id="椭圆形备份-2"  fill-rule="nonzero"></path>
        <path d="M15,5.5 C15.2761424,5.5 15.5,5.72385763 15.5,6 C15.5,6.24545989 15.3231248,6.44960837 15.0898756,6.49194433 L15,6.5 L9,6.5 C8.72385763,6.5 8.5,6.27614237 8.5,6 C8.5,5.75454011 8.67687516,5.55039163 8.91012437,5.50805567 L9,5.5 L15,5.5 Z" id="路径-5"  fill-rule="nonzero"></path>
        <path d="M15,13.5 C15.2761424,13.5 15.5,13.7238576 15.5,14 C15.5,14.2454599 15.3231248,14.4496084 15.0898756,14.4919443 L15,14.5 L9,14.5 C8.72385763,14.5 8.5,14.2761424 8.5,14 C8.5,13.7545401 8.67687516,13.5503916 8.91012437,13.5080557 L9,13.5 L15,13.5 Z" id="路径-5"  fill-rule="nonzero"></path>
    </g>
</svg>