<?xml version="1.0" encoding="UTF-8"?>
<svg width="24px" height="24px" viewBox="0 0 24 24" version="1.1" xmlns="http://www.w3.org/2000/svg" xmlns:xlink="http://www.w3.org/1999/xlink">
    <title>icon-list</title>
    <g id="icon-list" stroke="none" stroke-width="1" fill="none" fill-rule="evenodd">
        <path d="M20,5.5 C20.5522847,5.5 21,5.94771525 21,6.5 C21,7.01283584 20.6139598,7.43550716 20.1166211,7.49327227 L20,7.5 L4,7.5 C3.44771525,7.5 3,7.05228475 3,6.5 C3,5.98716416 3.38604019,5.56449284 3.88337887,5.50672773 L4,5.5 L20,5.5 Z" id="路径" fill="#000000" fill-rule="nonzero"></path>
        <path d="M16,11.5 C16.5522847,11.5 17,11.9477153 17,12.5 C17,13.0128358 16.6139598,13.4355072 16.1166211,13.4932723 L16,13.5 L4,13.5 C3.44771525,13.5 3,13.0522847 3,12.5 C3,11.9871642 3.38604019,11.5644928 3.88337887,11.5067277 L4,11.5 L16,11.5 Z" id="路径" fill="#000000" fill-rule="nonzero"></path>
        <path d="M12,17.5 C12.5522847,17.5 13,17.9477153 13,18.5 C13,19.0128358 12.6139598,19.4355072 12.1166211,19.4932723 L12,19.5 L4,19.5 C3.44771525,19.5 3,19.0522847 3,18.5 C3,17.9871642 3.38604019,17.5644928 3.88337887,17.5067277 L4,17.5 L12,17.5 Z" id="路径" fill="#000000" fill-rule="nonzero"></path>
    </g>
</svg>