<?xml version="1.0" encoding="UTF-8"?>
<svg width="20px" height="20px" viewBox="0 0 20 20" version="1.1" xmlns="http://www.w3.org/2000/svg" xmlns:xlink="http://www.w3.org/1999/xlink">
    <title>icon-copy</title>
    <g id="icon-copy" stroke="none" stroke-width="1" fill="none" fill-rule="evenodd">
        <path d="M12,6.5 L6,6.5 C5.17157288,6.5 4.5,7.17157288 4.5,8 L4.5,14 C4.5,14.8284271 5.17157288,15.5 6,15.5 L12,15.5 C12.8284271,15.5 13.5,14.8284271 13.5,14 L13.5,8 C13.5,7.17157288 12.8284271,6.5 12,6.5 Z M6,7.5 L12,7.5 C12.2761424,7.5 12.5,7.72385763 12.5,8 L12.5,14 C12.5,14.2761424 12.2761424,14.5 12,14.5 L6,14.5 C5.72385763,14.5 5.5,14.2761424 5.5,14 L5.5,8 C5.5,7.72385763 5.72385763,7.5 6,7.5 Z" id="矩形" fill="#979797" fill-rule="nonzero"></path>
        <path d="M14,4.5 C14.7796961,4.5 15.4204487,5.09488808 15.4931334,5.85553999 L15.5,6 L15.5,12 C15.5,12.7796961 14.9051119,13.4204487 14.14446,13.4931334 L14,13.5 L14,12.5 C14.2454599,12.5 14.4496084,12.3231248 14.4919443,12.0898756 L14.5,12 L14.5,6 C14.5,5.75454011 14.3231248,5.55039163 14.0898756,5.50805567 L14,5.5 L8,5.5 C7.75454011,5.5 7.55039163,5.67687516 7.50805567,5.91012437 L7.5,6 L6.5,6 C6.5,5.22030388 7.09488808,4.57955132 7.85553999,4.50686658 L8,4.5 L14,4.5 Z" id="路径" fill="#979797" fill-rule="nonzero"></path>
    </g>
</svg>