<?xml version="1.0" encoding="UTF-8"?>
<svg width="24px" height="24px" viewBox="0 0 24 24" version="1.1" xmlns="http://www.w3.org/2000/svg" xmlns:xlink="http://www.w3.org/1999/xlink">
    <title>icon-voice</title>
    <g id="icon-voice" stroke="none" stroke-width="1" fill="none" fill-rule="evenodd">
        <rect id="矩形" fill="#4A4A4A" x="10" y="5" width="4" height="8" rx="2"></rect>
        <path d="M16,10.5 C16.2761424,10.5 16.5,10.7238576 16.5,11 C16.5,13.4852814 14.4852814,15.5 12,15.5 C9.51471863,15.5 7.5,13.4852814 7.5,11 C7.5,10.7238576 7.72385763,10.5 8,10.5 C8.27614237,10.5 8.5,10.7238576 8.5,11 C8.5,12.9329966 10.0670034,14.5 12,14.5 C13.9329966,14.5 15.5,12.9329966 15.5,11 C15.5,10.7238576 15.7238576,10.5 16,10.5 Z" id="路径" fill="#4A4A4A" fill-rule="nonzero"></path>
        <path d="M12,14.5 C12.2454599,14.5 12.4496084,14.6768752 12.4919443,14.9101244 L12.5,15 L12.5,18 C12.5,18.2761424 12.2761424,18.5 12,18.5 C11.7545401,18.5 11.5503916,18.3231248 11.5080557,18.0898756 L11.5,18 L11.5,15 C11.5,14.7238576 11.7238576,14.5 12,14.5 Z" id="路径-11" fill="#4A4A4A" fill-rule="nonzero"></path>
        <path d="M14,17.5 C14.2761424,17.5 14.5,17.7238576 14.5,18 C14.5,18.2454599 14.3231248,18.4496084 14.0898756,18.4919443 L14,18.5 L10,18.5 C9.72385763,18.5 9.5,18.2761424 9.5,18 C9.5,17.7545401 9.67687516,17.5503916 9.91012437,17.5080557 L10,17.5 L14,17.5 Z" id="路径-12" fill="#4A4A4A" fill-rule="nonzero"></path>
    </g>
</svg>