<?xml version="1.0" encoding="UTF-8"?>
<svg width="20px" height="20px" viewBox="0 0 20 20" version="1.1" xmlns="http://www.w3.org/2000/svg" xmlns:xlink="http://www.w3.org/1999/xlink">
    <title>icon-log</title>
    <g id="icon-log" stroke="none" stroke-width="1" fill="none" fill-rule="evenodd">
        <path d="M13,4.5 C13.7796961,4.5 14.4204487,5.09488808 14.4931334,5.85553999 L14.5,6 L14.5,8.5 C14.5,8.77614237 14.2761424,9 14,9 C13.7545401,9 13.5503916,8.82312484 13.5080557,8.58987563 L13.5,8.5 L13.5,6 C13.5,5.75454011 13.3231248,5.55039163 13.0898756,5.50805567 L13,5.5 L7,5.5 C6.75454011,5.5 6.55039163,5.67687516 6.50805567,5.91012437 L6.5,6 L6.5,14 C6.5,14.2454599 6.67687516,14.4496084 6.91012437,14.4919443 L7,14.5 L9,14.5 C9.27614237,14.5 9.5,14.7238576 9.5,15 C9.5,15.2454599 9.32312484,15.4496084 9.08987563,15.4919443 L9,15.5 L7,15.5 C6.22030388,15.5 5.57955132,14.9051119 5.50686658,14.14446 L5.5,14 L5.5,6 C5.5,5.22030388 6.09488808,4.57955132 6.85553999,4.50686658 L7,4.5 L13,4.5 Z" id="路径" fill="#979797" fill-rule="nonzero"></path>
        <path d="M8,3.5 C8.24545989,3.5 8.44960837,3.67687516 8.49194433,3.91012437 L8.5,4 L8.5,6 C8.5,6.27614237 8.27614237,6.5 8,6.5 C7.75454011,6.5 7.55039163,6.32312484 7.50805567,6.08987563 L7.5,6 L7.5,4 C7.5,3.72385763 7.72385763,3.5 8,3.5 Z" id="直线" fill="#979797" fill-rule="nonzero"></path>
        <path d="M12,3.5 C12.2454599,3.5 12.4496084,3.67687516 12.4919443,3.91012437 L12.5,4 L12.5,6 C12.5,6.27614237 12.2761424,6.5 12,6.5 C11.7545401,6.5 11.5503916,6.32312484 11.5080557,6.08987563 L11.5,6 L11.5,4 C11.5,3.72385763 11.7238576,3.5 12,3.5 Z" id="直线备份" fill="#979797" fill-rule="nonzero"></path>
        <path d="M12,7.5 C9.51471863,7.5 7.5,9.51471863 7.5,12 C7.5,14.4852814 9.51471863,16.5 12,16.5 C14.4852814,16.5 16.5,14.4852814 16.5,12 C16.5,9.51471863 14.4852814,7.5 12,7.5 Z M12,8.5 C13.9329966,8.5 15.5,10.0670034 15.5,12 C15.5,13.9329966 13.9329966,15.5 12,15.5 C10.0670034,15.5 8.5,13.9329966 8.5,12 C8.5,10.0670034 10.0670034,8.5 12,8.5 Z" id="椭圆形" fill="#979797" fill-rule="nonzero"></path>
        <path d="M12,9.5 C12.2454599,9.5 12.4496084,9.67687516 12.4919443,9.91012437 L12.5,10 L12.5,11.5 L14,11.5 C14.2454599,11.5 14.4496084,11.6768752 14.4919443,11.9101244 L14.5,12 C14.5,12.2454599 14.3231248,12.4496084 14.0898756,12.4919443 L14,12.5 L12,12.5 C11.7545401,12.5 11.5503916,12.3231248 11.5080557,12.0898756 L11.5,12 L11.5,10 C11.5,9.72385763 11.7238576,9.5 12,9.5 Z" id="路径-3" fill="#979797" fill-rule="nonzero"></path>
    </g>
</svg>