<?xml version="1.0" encoding="UTF-8"?>
<svg width="20px" height="20px" viewBox="0 0 20 20" version="1.1" xmlns="http://www.w3.org/2000/svg" xmlns:xlink="http://www.w3.org/1999/xlink">
    <title>icon-replace</title>
    <g id="icon-replace" stroke="none" stroke-width="1"  fill-rule="evenodd">
        <path d="M13.7226499,4.58397485 C13.9268849,4.4478182 14.1948594,4.48174603 14.3594684,4.65233734 L14.4160251,4.7226499 L16.4160251,7.7226499 C16.6217207,8.03119317 16.4310302,8.43699367 16.0829991,8.49339097 L16,8.5 L4,8.5 C3.72385763,8.5 3.5,8.27614237 3.5,8 C3.5,7.75454011 3.67687516,7.55039163 3.91012437,7.50805567 L4,7.5 L15.065,7.5 L13.5839749,5.2773501 C13.4478182,5.07311513 13.481746,4.80514063 13.6523373,4.64053161 L13.7226499,4.58397485 Z" id="路径-15"  fill-rule="nonzero"></path>
        <path d="M13.7226499,11.5839749 C13.9268849,11.4478182 14.1948594,11.481746 14.3594684,11.6523373 L14.4160251,11.7226499 L16.4160251,14.7226499 C16.6217207,15.0311932 16.4310302,15.4369937 16.0829991,15.493391 L16,15.5 L4,15.5 C3.72385763,15.5 3.5,15.2761424 3.5,15 C3.5,14.7545401 3.67687516,14.5503916 3.91012437,14.5080557 L4,14.5 L15.065,14.5 L13.5839749,12.2773501 C13.4478182,12.0731151 13.481746,11.8051406 13.6523373,11.6405316 L13.7226499,11.5839749 Z" id="路径-15备份"  fill-rule="nonzero" transform="translate(10.000420, 13.499973) scale(-1, -1) translate(-10.000420, -13.499973) "></path>
    </g>
</svg>