<?xml version="1.0" encoding="UTF-8"?>
<svg width="20px" height="20px" viewBox="0 0 20 20" version="1.1" xmlns="http://www.w3.org/2000/svg" xmlns:xlink="http://www.w3.org/1999/xlink">
    <title>icon-edit</title>
    <g id="icon-edit" stroke="none" stroke-width="1"  fill-rule="evenodd">
        <path d="M10.8333333,4.5 C11.1094757,4.5 11.3333333,4.72385763 11.3333333,5 C11.3333333,5.24545989 11.1564582,5.44960837 10.923209,5.49194433 L10.8333333,5.5 L5.83333333,5.5 C5.67225028,5.5 5.53785424,5.61426066 5.50677215,5.76615504 L5.5,5.83333333 L5.5,14.1666667 C5.5,14.3277497 5.61426066,14.4621458 5.76615504,14.4932279 L5.83333333,14.5 L14.1666667,14.5 C14.3277497,14.5 14.4621458,14.3857393 14.4932279,14.233845 L14.5,14.1666667 L14.5,9.16666667 C14.5,8.89052429 14.7238576,8.66666667 15,8.66666667 C15.2454599,8.66666667 15.4496084,8.84354183 15.4919443,9.07679103 L15.5,9.16666667 L15.5,14.1666667 C15.5,14.8597299 14.9712106,15.4292877 14.2950756,15.4938964 L14.1666667,15.5 L5.83333333,15.5 C5.14027012,15.5 4.57071229,14.9712106 4.50610362,14.2950756 L4.5,14.1666667 L4.5,5.83333333 C4.5,5.14027012 5.02878941,4.57071229 5.70492444,4.50610362 L5.83333333,4.5 L10.8333333,4.5 Z" id="路径"  fill-rule="nonzero"></path>
        <path d="M14.6464466,4.64644661 C14.8417088,4.45118446 15.1582912,4.45118446 15.3535534,4.64644661 C15.5271197,4.82001296 15.5464049,5.08943736 15.4114088,5.2843055 L15.3535534,5.35355339 L8.35355339,12.3535534 C8.15829124,12.5488155 7.84170876,12.5488155 7.64644661,12.3535534 C7.47288026,12.179987 7.45359511,11.9105626 7.58859116,11.7156945 L7.64644661,11.6464466 L14.6464466,4.64644661 Z" id="路径-4"  fill-rule="nonzero"></path>
    </g>
</svg>