<?xml version="1.0" encoding="UTF-8"?>
<svg width="24px" height="24px" viewBox="0 0 24 24" version="1.1" xmlns="http://www.w3.org/2000/svg" xmlns:xlink="http://www.w3.org/1999/xlink">
    <title>icon-gesture</title>
    <g id="icon-gesture" stroke="none" stroke-width="1" fill-rule="evenodd">
        <path d="M8.28733459,13.8064516 C8.88472928,14.441774 9.57143642,15.5062526 10.347456,16.9998875 C10.3602738,17.024595 10.3718586,17.0499234 10.3821517,17.0757848 L10.75,18 L10.75,18 L15.5,18 L15.9490651,17.101151 C15.9704734,17.0582604 15.9881502,17.0136059 16.0018822,16.9676783 C16.9554247,13.7785017 17.2257488,11.8498093 16.8128544,11.181601 C16.3969754,10.5085623 14.7926906,10.0529669 12,9.81481481 L12,5.96296296 C11.8815375,5.32098765 11.5450536,5 10.9905482,5 C10.4360428,5 10.1058601,5.32098765 10,5.96296296 L10,12.2222222 C9.13547574,11.6630824 8.42596093,11.2489048 7.87145558,10.9796894 C7.03969754,10.5758662 6,10.9796894 6,11.5854241 C6,12.1911589 7.383831,12.845586 8.28733459,13.8064516 Z" id="路径"></path>
    </g>
</svg>