<?xml version="1.0" encoding="UTF-8"?>
<svg width="24px" height="24px" viewBox="0 0 24 24" version="1.1" xmlns="http://www.w3.org/2000/svg" xmlns:xlink="http://www.w3.org/1999/xlink">
    <title>icon-search</title>
    <g id="icon-search" stroke="none" stroke-width="1" fill="none" fill-rule="evenodd">
        <path d="M10,4 C6.6862915,4 4,6.6862915 4,10 C4,13.3137085 6.6862915,16 10,16 C13.3137085,16 16,13.3137085 16,10 C16,6.6862915 13.3137085,4 10,4 Z M10,6 C12.209139,6 14,7.790861 14,10 C14,12.209139 12.209139,14 10,14 C7.790861,14 6,12.209139 6,10 C6,7.790861 7.790861,6 10,6 Z" id="椭圆形" fill="#666666" fill-rule="nonzero"></path>
        <rect id="矩形" fill="#666666" transform="translate(17.000000, 16.500000) rotate(-45.000000) translate(-17.000000, -16.500000) " x="16" y="14" width="2" height="5"></rect>
    </g>
</svg>