<?xml version="1.0" encoding="UTF-8"?>
<svg width="20px" height="20px" viewBox="0 0 20 20" version="1.1" xmlns="http://www.w3.org/2000/svg" xmlns:xlink="http://www.w3.org/1999/xlink">
    <title>icon-delete</title>
    <g id="icon-delete" stroke="none" stroke-width="1" fill="none" fill-rule="evenodd">
        <path d="M14.5,5.5 L5.5,5.5 L5.5,15 C5.5,15.8284271 6.17157288,16.5 7,16.5 L13,16.5 C13.8284271,16.5 14.5,15.8284271 14.5,15 L14.5,5.5 Z M6.5,6.5 L13.5,6.5 L13.5,15 C13.5,15.2761424 13.2761424,15.5 13,15.5 L7,15.5 L6.91012437,15.4919443 C6.67687516,15.4496084 6.5,15.2454599 6.5,15 L6.5,6.5 Z" id="矩形" fill="#979797" fill-rule="nonzero"></path>
        <path d="M10,3.5 C11.3254834,3.5 12.4100387,4.53153594 12.4946823,5.83562431 L12.5,6 L11.5,6 C11.5,5.17157288 10.8284271,4.5 10,4.5 C9.22030388,4.5 8.57955132,5.09488808 8.50686658,5.85553999 L8.5,6 L7.5,6 C7.5,4.61928813 8.61928813,3.5 10,3.5 Z" id="路径" fill="#979797" fill-rule="nonzero"></path>
        <path d="M15,5.5 C15.2761424,5.5 15.5,5.72385763 15.5,6 C15.5,6.24545989 15.3231248,6.44960837 15.0898756,6.49194433 L15,6.5 L5,6.5 C4.72385763,6.5 4.5,6.27614237 4.5,6 C4.5,5.75454011 4.67687516,5.55039163 4.91012437,5.50805567 L5,5.5 L15,5.5 Z" id="路径-5" fill="#979797" fill-rule="nonzero"></path>
        <path d="M11,8.5 C11.2454599,8.5 11.4496084,8.67687516 11.4919443,8.91012437 L11.5,9 L11.5,13 C11.5,13.2761424 11.2761424,13.5 11,13.5 C10.7545401,13.5 10.5503916,13.3231248 10.5080557,13.0898756 L10.5,13 L10.5,9 C10.5,8.72385763 10.7238576,8.5 11,8.5 Z" id="直线备份" fill="#979797" fill-rule="nonzero"></path>
        <path d="M9,8.5 C9.24545989,8.5 9.44960837,8.67687516 9.49194433,8.91012437 L9.5,9 L9.5,13 C9.5,13.2761424 9.27614237,13.5 9,13.5 C8.75454011,13.5 8.55039163,13.3231248 8.50805567,13.0898756 L8.5,13 L8.5,9 C8.5,8.72385763 8.72385763,8.5 9,8.5 Z" id="直线" fill="#979797" fill-rule="nonzero"></path>
    </g>
</svg>