<?xml version="1.0" encoding="UTF-8"?>
<svg width="20px" height="20px" viewBox="0 0 20 20" version="1.1" xmlns="http://www.w3.org/2000/svg" xmlns:xlink="http://www.w3.org/1999/xlink">
    <title>icon-report</title>
    <g id="icon-report" stroke="none" stroke-width="1" fill="none" fill-rule="evenodd">
        <path d="M13,4.5 L7,4.5 C6.17157288,4.5 5.5,5.17157288 5.5,6 L5.5,14 C5.5,14.8284271 6.17157288,15.5 7,15.5 L13,15.5 C13.8284271,15.5 14.5,14.8284271 14.5,14 L14.5,6 C14.5,5.17157288 13.8284271,4.5 13,4.5 Z M7,5.5 L13,5.5 C13.2761424,5.5 13.5,5.72385763 13.5,6 L13.5,14 C13.5,14.2761424 13.2761424,14.5 13,14.5 L7,14.5 C6.72385763,14.5 6.5,14.2761424 6.5,14 L6.5,6 C6.5,5.72385763 6.72385763,5.5 7,5.5 Z" id="矩形" fill="#979797" fill-rule="nonzero"></path>
        <path d="M12,9.5 C12.2761424,9.5 12.5,9.72385763 12.5,10 C12.5,10.2454599 12.3231248,10.4496084 12.0898756,10.4919443 L12,10.5 L8,10.5 C7.72385763,10.5 7.5,10.2761424 7.5,10 C7.5,9.75454011 7.67687516,9.55039163 7.91012437,9.50805567 L8,9.5 L12,9.5 Z" id="路径-2" fill="#979797" fill-rule="nonzero"></path>
        <path d="M12,11.5 C12.2761424,11.5 12.5,11.7238576 12.5,12 C12.5,12.2454599 12.3231248,12.4496084 12.0898756,12.4919443 L12,12.5 L8,12.5 C7.72385763,12.5 7.5,12.2761424 7.5,12 C7.5,11.7545401 7.67687516,11.5503916 7.91012437,11.5080557 L8,11.5 L12,11.5 Z" id="路径-2备份" fill="#979797" fill-rule="nonzero"></path>
        <path d="M10,7.5 C10.2761424,7.5 10.5,7.72385763 10.5,8 C10.5,8.24545989 10.3231248,8.44960837 10.0898756,8.49194433 L10,8.5 L8,8.5 C7.72385763,8.5 7.5,8.27614237 7.5,8 C7.5,7.75454011 7.67687516,7.55039163 7.91012437,7.50805567 L8,7.5 L10,7.5 Z" id="路径-2" fill="#979797" fill-rule="nonzero"></path>
    </g>
</svg>