<?xml version="1.0" encoding="UTF-8"?>
<svg width="24px" height="24px" viewBox="0 0 24 24" version="1.1" xmlns="http://www.w3.org/2000/svg" xmlns:xlink="http://www.w3.org/1999/xlink">
    <title>icon-user-off</title>
    <g id="icon-user-off" stroke="none" stroke-width="1"  fill-rule="evenodd">
        <path d="M12,3.25 C9.37664744,3.25 7.25,5.37664744 7.25,8 C7.25,10.6233526 9.37664744,12.75 12,12.75 C14.6233526,12.75 16.75,10.6233526 16.75,8 C16.75,5.37664744 14.6233526,3.25 12,3.25 Z M12,4.75 C13.7949254,4.75 15.25,6.20507456 15.25,8 C15.25,9.79492544 13.7949254,11.25 12,11.25 C10.2050746,11.25 8.75,9.79492544 8.75,8 C8.75,6.20507456 10.2050746,4.75 12,4.75 Z" id="椭圆形"  fill-rule="nonzero"></path>
        <path d="M12,11.25 C16.1978951,11.25 19.6162467,14.5876228 19.7461693,18.753983 L19.75,19 L19.75,19.75 L18.25,19.75 L18.25,19 C18.25,15.5482203 15.4517797,12.75 12,12.75 C8.62492653,12.75 5.87468809,15.4252368 5.75412198,18.7708731 L5.75,19 L5.75,19.75 L4.25,19.75 L4.25,19 C4.25,14.7197932 7.71979319,11.25 12,11.25 Z" id="路径"  fill-rule="nonzero"></path>
    </g>
</svg>